<svg xmlns="http://www.w3.org/2000/svg" xmlns:xlink="http://www.w3.org/1999/xlink" xml:space="preserve" version="1.1" style="shape-rendering:geometricPrecision;text-rendering:geometricPrecision;image-rendering:optimizeQuality;" viewBox="0 0 333.33 350" x="0px" y="0px" fill-rule="evenodd" clip-rule="evenodd"><defs><style type="text/css">
   
    .fil0 {fill:rgb(250, 217, 30)}
   
  </style></defs><g><path class="fil0" d="M166.67 102.49c30.75,0 55.68,12.8 55.68,28.6 0,15.8 -24.93,28.6 -55.68,28.6 -30.75,0 -55.68,-12.8 -55.68,-28.6 0,-15.8 24.93,-28.6 55.68,-28.6zm150.61 28.6l0 48.6 -25.72 15.67 3.15 -8.62c2.96,-8.06 -5.55,-15.79 -13.34,-11.78l-60.06 31.19 4.72 -12.44c2.76,-7.24 -3.93,-14.77 -11.57,-12.56l-75.23 21.94 8.53 -27.43c2.28,-7.33 -4.69,-14.39 -12.15,-11.89l-76.99 25.87 -42.56 -21.06 0 -37.49c0,-42.72 67.43,-77.36 150.61,-77.36 83.18,0 150.61,34.64 150.61,77.36zm0 70.97l0 0.19c0,42.72 -67.43,77.36 -150.61,77.36 -83.18,0 -150.61,-34.64 -150.61,-77.36l0 -12.35 37.63 18.61c2.44,1.2 5.15,1.27 7.52,0.4l62.76 -21.09 -8.27 26.57c-2.37,7.59 5.03,14.44 12.33,11.85l73.3 -21.38 -6.86 17.94c-3.23,8.5 6.11,16.17 13.8,11.65l60.02 -31.17 -4.11 11.19c-3.2,8.73 6.71,16.33 14.32,11.23l38.79 -23.63zm-28.08 -69.32l6.72 6.72 -20.22 20.22 -6.72 -6.72 20.22 -20.22zm-207.76 6.99l6.72 6.72 -20.22 20.22 -6.72 -6.72 20.23 -20.22zm153.87 6.48l6.72 6.72 -20.22 20.22 -6.72 -6.72 20.22 -20.22zm26.94 -31.96l6.72 6.72 -20.22 20.22 -6.72 -6.72 20.22 -20.22zm-54.95 -16.05l2.46 -9.19 27.62 7.4 -2.46 9.19 -27.63 -7.4zm-68.22 -9.8l2.46 -9.18 27.62 7.4 -2.46 9.18 -27.63 -7.4zm-31.87 0.62l6.72 6.72 -20.22 20.22 -6.72 -6.72 20.23 -20.22zm-49.52 13.47l9.5 0 0 28.6 -9.5 0 0 -28.6zm108.97 16.94c12.54,0 22.71,5.22 22.71,11.67 0,6.44 -10.17,11.66 -22.71,11.66 -12.54,0 -22.7,-5.22 -22.7,-11.66 0,-6.44 10.17,-11.67 22.7,-11.67z"/></g></svg>